<?xml version="1.0" standalone="no"?>
<!DOCTYPE svg PUBLIC "-//W3C//DTD SVG 20010904//EN"
 "http://www.w3.org/TR/2001/REC-SVG-20010904/DTD/svg10.dtd">
<svg version="1.0" xmlns="http://www.w3.org/2000/svg"
 width="842.000000pt" height="842.000000pt" viewBox="0 0 842.000000 842.000000"
 preserveAspectRatio="xMidYMid meet">
<metadata>
Created by potrace 1.14, written by Peter Selinger 2001-2017
</metadata>
<g transform="translate(0.000000,842.000000) scale(0.100000,-0.100000)"
fill="#000000" stroke="none">
<path d="M0 4210 l0 -4210 4210 0 4210 0 0 4210 0 4210 -4210 0 -4210 0 0
-4210z m1625 3870 c3 -6 -1 -7 -9 -4 -10 4 -16 1 -16 -7 0 -7 -3 -10 -6 -6 -7
7 4 27 16 27 5 0 12 -4 15 -10z m5195 6 c0 -2 -7 -7 -16 -10 -8 -3 -12 -2 -9
4 6 10 25 14 25 6z m-4929 -174 c31 -19 37 -27 29 -37 -8 -10 -8 -15 1 -21 7
-4 9 -3 5 4 -20 32 25 14 124 -49 96 -63 109 -74 98 -88 -12 -14 -11 -14 4 -2
15 11 21 11 40 -1 231 -148 321 -210 261 -180 -10 5 -27 6 -38 3 -21 -6 -76
-40 -85 -52 -7 -9 -276 187 -273 199 1 5 -5 9 -15 8 -9 0 -16 5 -14 12 1 8 -2
11 -7 8 -5 -3 -60 31 -123 77 -62 45 -129 94 -148 107 -57 40 -70 52 -65 61 3
4 22 2 43 -5 20 -7 43 -11 50 -9 6 3 12 0 12 -7 0 -6 -6 -8 -12 -4 -7 4 -10 4
-6 -1 4 -4 24 -8 44 -9 28 -1 32 1 19 9 -9 6 -46 29 -83 53 -37 23 -73 40 -82
37 -8 -4 -11 -3 -7 1 4 4 -1 16 -10 27 -10 10 30 -12 90 -49 59 -38 126 -80
148 -92z m4876 140 c-10 -10 -14 -22 -10 -27 5 -4 3 -5 -4 -2 -16 10 -44 -3
-36 -16 4 -6 1 -7 -6 -3 -7 5 -20 2 -29 -6 -9 -8 -38 -27 -64 -42 -27 -15 -48
-28 -48 -30 0 -2 7 -9 15 -16 13 -11 14 -10 9 3 -4 12 2 18 23 22 15 4 47 13
70 20 46 15 63 6 35 -16 -46 -38 -83 -59 -92 -54 -6 4 -9 1 -8 -5 2 -6 -116
-98 -262 -205 l-264 -193 -36 29 c-43 36 -78 37 -130 4 -22 -14 -40 -23 -40
-21 0 7 118 84 545 356 149 94 286 182 305 195 43 29 48 30 27 7z m-5146 -48
c9 -11 2 -9 -18 6 -18 13 -33 25 -33 27 0 8 38 -17 51 -33z m5199 12 c0 -2 -8
-10 -17 -17 -16 -13 -17 -12 -4 4 13 16 21 21 21 13z m-4294 -517 c3 -6 -5 -3
-20 6 -14 10 -26 19 -26 22 0 7 39 -17 46 -28z m192 -129 c10 -14 31 -43 46
-65 l28 -40 -33 40 c-44 52 -88 96 -119 118 -14 10 -6 7 17 -6 23 -12 50 -34
61 -47z m3062 52 c-30 -20 -85 -74 -124 -122 l-28 -35 28 40 c51 74 65 89 102
112 43 26 59 30 22 5z m-3279 -59 c13 -16 12 -17 -3 -4 -10 7 -18 15 -18 17 0
8 8 3 21 -13z m3439 13 c0 -2 -8 -10 -17 -17 -16 -13 -17 -12 -4 4 13 16 21
21 21 13z m-3399 -43 c13 -16 12 -17 -3 -4 -10 7 -18 15 -18 17 0 8 8 3 21
-13z m3359 13 c0 -2 -8 -10 -17 -17 -16 -13 -17 -12 -4 4 13 16 21 21 21 13z
m-3289 -63 c13 -16 12 -17 -3 -4 -17 13 -22 21 -14 21 2 0 10 -8 17 -17z
m3219 13 c0 -2 -8 -10 -17 -17 -16 -13 -17 -12 -4 4 13 16 21 21 21 13z m-220
-66 c-12 -16 -24 -30 -26 -30 -3 0 4 14 16 30 12 17 24 30 26 30 3 0 -4 -13
-16 -30z m-2929 3 c13 -16 12 -17 -3 -4 -10 7 -18 15 -18 17 0 8 8 3 21 -13z
m75 -54 c3 -6 -5 -3 -20 6 -14 10 -26 19 -26 22 0 7 39 -17 46 -28z m2954 28
c0 -2 -15 -13 -32 -26 l-33 -22 28 25 c26 24 37 31 37 23z m-2849 -34 c13 -16
12 -17 -3 -4 -10 7 -18 15 -18 17 0 8 8 3 21 -13z m2719 14 c0 -2 -10 -12 -22
-23 l-23 -19 19 23 c18 21 26 27 26 19z m-2705 -95 c-3 -3 -11 0 -18 7 -9 10
-8 11 6 5 10 -3 15 -9 12 -12z m2690 8 c-3 -5 -12 -10 -18 -10 -7 0 -6 4 3 10
19 12 23 12 15 0z m410 -1096 l18 -87 -69 -66 c-128 -122 -199 -187 -211 -194
-7 -5 -34 32 -76 105 -35 62 -78 136 -95 165 -27 45 -29 53 -14 57 9 2 71 18
137 35 66 17 152 39 190 49 106 30 99 33 120 -64z m-4940 -199 c21 -31 35 -58
31 -62 -3 -3 -6 -2 -6 3 0 6 -7 19 -16 30 -15 19 -16 19 -9 -1 3 -12 -6 -5
-25 18 -17 20 -36 37 -41 37 -6 0 -16 -15 -24 -32 -10 -23 -14 -27 -15 -14 0
18 46 76 60 76 4 0 24 -25 45 -55z m4262 13 c-3 -8 -6 -5 -6 6 -1 11 2 17 5
13 3 -3 4 -12 1 -19z m1356 -15 c-7 -2 -21 -2 -30 0 -10 3 -4 5 12 5 17 0 24
-2 18 -5z m-1366 -45 c-3 -7 -5 -2 -5 12 0 14 2 19 5 13 2 -7 2 -19 0 -25z
m-10 -50 c-3 -7 -5 -2 -5 12 0 14 2 19 5 13 2 -7 2 -19 0 -25z m-10 -50 c-3
-8 -6 -5 -6 6 -1 11 2 17 5 13 3 -3 4 -12 1 -19z m-10 -50 c-3 -8 -6 -5 -6 6
-1 11 2 17 5 13 3 -3 4 -12 1 -19z m-10 -50 c-3 -8 -6 -5 -6 6 -1 11 2 17 5
13 3 -3 4 -12 1 -19z m-10 -50 c-3 -7 -5 -2 -5 12 0 14 2 19 5 13 2 -7 2 -19
0 -25z m-1702 -388 c121 -113 266 -249 322 -302 56 -54 106 -98 110 -98 5 0
60 68 123 152 l115 152 3 -232 c1 -128 1 -335 0 -462 l-3 -230 -175 231 -174
231 -76 -155 c-41 -86 -77 -156 -80 -156 -3 0 -62 91 -132 202 -112 179 -200
310 -240 357 -7 8 -14 34 -16 59 -1 25 -16 111 -31 191 -16 80 -37 186 -46
235 -9 50 -19 99 -22 110 -6 22 -9 24 322 -285z m-2751 -172 c-21 -41 -25 -32
-12 27 9 44 12 47 19 27 6 -16 4 -33 -7 -54z m6866 10 c0 -18 -2 -20 -9 -8 -6
8 -7 18 -5 22 9 14 14 9 14 -14z m-4340 -112 c-1 -12 -50 44 -50 57 0 4 11 -4
25 -19 14 -15 25 -32 25 -38z m2635 -223 c63 -130 114 -237 113 -238 -2 -1
-153 -91 -336 -201 -195 -116 -337 -207 -342 -219 -7 -16 -9 -17 -9 -3 -1 9
-4 18 -8 21 -5 2 -2 2 6 0 11 -3 11 -1 1 12 -7 8 -17 12 -23 8 -6 -4 -7 -1 -3
6 10 15 -23 53 -37 44 -5 -3 -7 -1 -4 4 5 8 -44 73 -104 138 -6 5 -14 4 -21
-4 -11 -10 -10 -11 3 -6 18 7 54 -39 43 -56 -3 -6 3 -13 15 -16 25 -6 31 -29
28 -95 -1 -25 1 -44 6 -41 4 2 7 0 7 -6 0 -5 -5 -11 -11 -13 -13 -4 -24 -194
-11 -202 6 -3 8 -16 6 -29 -4 -20 -4 -20 4 -2 5 11 12 34 16 50 7 29 7 29 -8
10 -8 -11 -16 -15 -16 -9 0 15 25 36 33 27 11 -10 48 83 41 104 -5 16 -4 16 5
1 9 -13 7 -28 -8 -65 -15 -38 -131 -313 -180 -428 -8 -18 -11 -15 -30 25 -22
48 -28 85 -11 75 6 -4 8 -10 5 -15 -3 -4 -2 -16 1 -25 6 -13 9 -14 16 -3 6 9
7 6 3 -9 -3 -12 -1 -24 5 -28 9 -6 14 10 13 42 -1 7 3 11 7 8 9 -6 32 44 25
55 -3 5 -1 11 5 15 7 4 7 13 -1 28 -9 20 -9 21 4 4 14 -16 15 -15 22 19 4 26
3 39 -7 45 -7 5 -8 9 -2 9 5 0 16 -6 23 -12 11 -11 12 -9 3 7 -5 11 -13 45
-17 75 -8 68 -25 90 -26 35 -1 -40 -1 -40 -10 -10 -5 17 -10 49 -12 71 -1 23
-7 48 -13 55 -10 13 -40 111 -47 154 -2 11 -8 19 -14 18 -6 -1 -9 6 -5 19 3
14 1 19 -6 14 -8 -5 -10 -2 -6 9 4 8 2 21 -4 28 -6 6 -12 22 -14 35 -4 32 -23
28 -23 -5 0 -16 -3 -31 -7 -34 -5 -3 3 -20 17 -39 14 -19 25 -39 25 -44 0 -6
-6 -2 -12 9 -6 11 -20 28 -31 37 -19 17 -18 19 6 134 14 65 23 122 20 127 -14
23 16 -2 60 -49 47 -51 65 -83 27 -49 -18 17 -20 17 -14 2 5 -15 18 -22 27
-14 2 1 11 -4 20 -11 10 -9 17 -10 22 -2 3 6 11 8 16 5 5 -4 9 2 9 12 0 10
126 144 302 320 167 166 304 302 305 303 1 0 54 -106 118 -237z m-2785 197
c90 -9 96 -11 122 -42 15 -18 27 -35 27 -38 0 -3 -21 -29 -48 -58 l-47 -54
-90 57 c-69 43 -94 65 -111 98 -12 23 -22 45 -23 49 0 3 17 4 38 2 20 -2 80
-8 132 -14z m2244 -30 c-15 -36 -31 -52 -108 -102 l-91 -59 -47 53 c-26 29
-47 55 -47 58 0 3 12 20 27 38 28 33 29 34 152 46 69 7 126 11 128 10 2 -1 -5
-21 -14 -44z m-321 -957 c4 -96 4 -110 -2 -53 -14 120 -19 238 -11 208 4 -15
10 -84 13 -155z m278 84 c-10 -9 -11 -8 -5 6 3 10 9 15 12 12 3 -3 0 -11 -7
-18z m-59 -27 c3 -3 0 -13 -7 -24 -13 -17 -14 -15 -13 13 1 17 4 28 7 24 3 -4
9 -10 13 -13z m-199 -300 c3 -34 2 -47 -3 -35 -8 19 -14 103 -6 94 2 -2 6 -29
9 -59z m47 -65 c0 -14 -4 -25 -10 -25 -5 0 -10 11 -10 25 0 14 5 25 10 25 6 0
10 -11 10 -25z m2310 -196 l25 -20 -32 16 c-18 8 -33 18 -33 20 0 10 16 4 40
-16z m-6515 -59 c3 -6 -1 -7 -9 -4 -18 7 -21 14 -7 14 6 0 13 -4 16 -10z m438
-6 l189 -6 40 -87 c22 -47 51 -115 65 -150 13 -35 30 -75 37 -89 13 -24 13
-24 19 -3 3 14 1 19 -6 14 -7 -4 -6 1 2 10 15 19 31 22 31 6 0 -27 51 -54 69
-36 8 8 11 8 11 0 0 -6 -6 -16 -14 -22 -11 -9 -15 -9 -19 1 -4 9 -6 9 -6 -2 0
-19 33 -60 49 -60 6 0 9 -4 6 -8 -3 -5 24 -7 59 -5 35 1 67 -2 70 -7 3 -6 13
-10 22 -10 21 0 106 -40 115 -54 4 -6 8 -8 8 -4 0 4 48 -13 106 -38 58 -24
110 -44 116 -44 5 0 16 -7 24 -15 10 -10 25 -13 42 -9 19 4 23 3 13 -4 -18
-13 3 -25 28 -17 12 3 54 -8 101 -26 66 -26 87 -40 106 -69 20 -29 37 -40 92
-58 l67 -22 55 -101 55 -102 230 -107 c127 -59 278 -129 337 -157 l108 -51 10
36 c13 49 13 63 -2 61 -25 -3 -34 1 -88 42 -30 23 -57 43 -59 45 -2 2 6 13 19
24 13 12 78 71 143 133 66 62 128 117 137 124 14 10 31 0 110 -67 l93 -78 76
-7 c67 -6 81 -11 119 -42 l42 -34 43 34 c37 31 51 36 118 42 l76 7 93 78 c79
67 96 77 110 67 9 -7 71 -62 137 -124 65 -62 130 -121 143 -133 27 -23 30 -19
-50 -75 -37 -26 -68 -41 -77 -38 -13 5 -15 0 -8 -33 12 -63 11 -66 -20 -84
-16 -9 -92 -54 -169 -99 -76 -44 -140 -81 -143 -81 -3 0 -16 -9 -30 -20 -22
-17 -41 -20 -124 -20 l-99 0 0 -112 c0 -128 8 -143 11 -20 3 109 19 129 19 24
0 -75 2 -84 19 -89 11 -3 21 -14 23 -26 2 -11 12 -21 24 -23 18 -3 23 4 33 49
6 29 16 59 22 67 14 20 3 -59 -18 -138 -8 -31 -17 -82 -18 -112 -4 -57 -11
-109 -20 -147 -10 -42 14 -23 41 32 15 30 30 55 34 55 4 0 21 -7 39 -16 25
-12 30 -20 25 -36 -6 -19 -3 -20 42 -14 l49 6 -45 -19 c-25 -11 -37 -20 -27
-20 10 -1 27 4 38 9 24 14 26 -5 2 -19 -28 -16 -5 -13 25 4 15 8 40 28 56 44
16 17 32 28 37 25 5 -2 16 2 26 11 34 31 108 85 116 85 22 0 75 53 118 118 27
41 49 75 49 78 0 2 15 26 33 53 30 46 71 112 170 271 22 36 62 98 89 138 26
41 48 78 48 83 0 5 11 15 25 21 14 6 25 15 25 20 0 5 -5 6 -11 2 -18 -11 7 30
28 47 17 13 17 13 0 -7 -25 -30 -13 -54 22 -44 16 4 35 3 45 -2 9 -5 56 -7
104 -4 127 8 134 8 164 4 16 -1 28 -4 28 -4 0 -1 -51 -42 -113 -91 -62 -50
-120 -98 -130 -107 -9 -10 -17 -15 -17 -11 0 4 -7 0 -15 -9 -22 -22 -18 -29
12 -21 24 6 25 5 12 -11 -12 -14 24 9 181 119 14 9 50 35 80 57 67 49 95 66
86 52 -3 -6 1 -12 9 -14 19 -4 19 -4 -511 -394 -38 -28 -164 -121 -279 -206
-116 -85 -222 -161 -235 -168 -14 -7 -35 -21 -47 -32 -12 -12 -27 -17 -34 -13
-7 5 -10 4 -6 -2 8 -13 -70 -76 -83 -68 -6 4 -9 2 -8 -3 3 -9 -378 -301 -393
-302 -4 0 -72 48 -150 106 -79 59 -178 132 -220 163 -156 114 -337 247 -424
311 -49 37 -164 121 -255 187 -91 67 -199 146 -240 176 -41 31 -93 69 -115 85
-22 16 -110 81 -195 144 -85 62 -213 156 -284 208 -71 52 -220 163 -331 245
-112 83 -256 188 -320 235 -130 94 -185 140 -148 121 18 -9 26 -8 40 4 10 8
26 20 35 27 16 12 0 26 -138 128 -85 63 -165 123 -177 133 -12 10 -57 43 -99
74 -43 31 -78 59 -78 63 0 4 19 6 43 4 23 -2 127 -7 230 -10z m2409 -81 l92
-67 -39 -17 c-35 -16 -40 -23 -76 -120 -21 -57 -39 -109 -39 -115 0 -6 -13
-28 -29 -48 l-29 -36 39 -132 c21 -73 39 -138 39 -145 0 -11 -67 -69 -309
-269 -29 -24 -57 -44 -62 -44 -14 0 -87 50 -92 63 -43 108 -177 459 -177 465
0 5 50 54 112 108 122 108 243 216 383 342 50 45 91 81 93 82 1 0 44 -30 94
-67z m1116 -100 c103 -91 221 -197 262 -233 41 -37 90 -80 108 -95 29 -25 43
-55 24 -55 -4 0 -48 11 -97 25 -100 28 -251 70 -395 109 -52 14 -100 26 -106
26 -5 0 -28 51 -49 114 -39 113 -40 114 -77 126 l-38 11 29 25 c31 26 144 112
149 113 1 1 87 -74 190 -166z m-3457 -190 c13 -16 12 -17 -3 -4 -10 7 -18 15
-18 17 0 8 8 3 21 -13z m408 -4 c-22 -13 -31 -11 -17 5 7 8 17 12 22 9 4 -3 2
-9 -5 -14z m4866 -49 c-3 -5 -12 -10 -18 -10 -7 0 -6 4 3 10 19 12 23 12 15 0z
m-1962 -67 c-5 -14 0 -15 36 -10 38 5 70 -1 121 -21 15 -5 23 -7 85 -16 17 -2
84 -18 150 -35 91 -23 121 -28 127 -18 20 31 3 -22 -52 -163 -61 -155 -70
-175 -70 -148 0 13 -296 262 -387 326 l-32 22 -17 -60 c-9 -33 -19 -59 -21
-56 -2 2 8 45 22 96 25 89 25 93 8 113 -18 20 -18 20 9 3 17 -12 25 -23 21
-33z m-2115 -98 c-3 -3 -9 2 -12 12 -6 14 -5 15 5 6 7 -7 10 -15 7 -18z m-168
-1 c0 -2 -7 -4 -15 -4 -8 0 -15 4 -15 10 0 5 7 7 15 4 8 -4 15 -8 15 -10z m65
-4 c3 -5 2 -10 -4 -10 -5 0 -13 5 -16 10 -3 6 -2 10 4 10 5 0 13 -4 16 -10z
m97 -52 c-6 -6 -8 -17 -5 -26 5 -12 0 -12 -26 4 -17 10 -27 20 -20 23 6 2 15
-3 20 -10 5 -8 9 -11 10 -6 1 4 3 12 4 17 1 6 3 13 4 16 0 3 6 2 12 -2 7 -4 7
-10 1 -16z m2055 -60 c-3 -8 -6 -5 -6 6 -1 11 2 17 5 13 3 -3 4 -12 1 -19z
m17 -69 c54 -42 66 -58 21 -26 -33 24 -51 43 -52 59 -1 18 -1 19 4 4 3 -11 15
-27 27 -37z m428 -201 c-10 -24 -27 -50 -38 -58 -15 -12 -14 -10 3 13 12 16
27 44 33 63 7 20 14 33 17 31 2 -3 -4 -25 -15 -49z m278 -82 c0 -2 -18 -13
-40 -25 -48 -25 -53 -19 -7 9 31 19 47 25 47 16z m0 -36 c8 -5 11 -10 5 -10
-5 0 -17 5 -25 10 -8 5 -10 10 -5 10 6 0 17 -5 25 -10z m-14 -22 c4 -7 3 -8
-4 -4 -7 4 -12 3 -12 -2 0 -5 -7 -9 -16 -9 -14 0 -14 2 2 14 22 16 21 16 30 1z
m57 -15 c-7 -2 -19 -2 -25 0 -7 3 -2 5 12 5 14 0 19 -2 13 -5z m84 1 c-3 -3
-12 -4 -19 -1 -8 3 -5 6 6 6 11 1 17 -2 13 -5z m-27 -24 c12 -8 12 -10 -5 -10
-11 0 -27 5 -35 10 -12 8 -12 10 5 10 11 0 27 -5 35 -10z m55 -9 c-3 -6 -14
-11 -23 -11 -15 1 -15 2 2 15 21 16 32 13 21 -4z m-1005 -895 c0 -11 -19 -15
-25 -6 -3 5 1 10 9 10 9 0 16 -2 16 -4z"/>
<path d="M1730 7936 c0 -2 12 -12 28 -21 l27 -18 -19 21 c-17 20 -36 29 -36
18z"/>
<path d="M1890 7880 c-9 -6 -10 -10 -3 -10 6 0 15 5 18 10 8 12 4 12 -15 0z"/>
<path d="M1830 7870 c8 -5 20 -10 25 -10 6 0 3 5 -5 10 -8 5 -19 10 -25 10 -5
0 -3 -5 5 -10z"/>
<path d="M6659 7923 c-13 -15 -12 -15 9 -4 23 12 28 21 13 21 -5 0 -15 -7 -22
-17z"/>
<path d="M6555 7890 c3 -5 8 -10 11 -10 2 0 4 5 4 10 0 6 -5 10 -11 10 -5 0
-7 -4 -4 -10z"/>
<path d="M6534 7866 c5 -14 3 -17 -11 -12 -15 6 -16 5 -5 -5 17 -18 35 1 21
21 -9 12 -10 12 -5 -4z"/>
<path d="M6570 7870 c-8 -5 -10 -10 -5 -10 6 0 17 5 25 10 8 5 11 10 5 10 -5
0 -17 -5 -25 -10z"/>
<path d="M5100 4245 c0 -8 4 -15 10 -15 5 0 7 7 4 15 -4 8 -8 15 -10 15 -2 0
-4 -7 -4 -15z"/>
<path d="M5232 3785 c0 -16 2 -22 5 -12 2 9 2 23 0 30 -3 6 -5 -1 -5 -18z"/>
<path d="M5242 3695 c0 -16 2 -22 5 -12 2 9 2 23 0 30 -3 6 -5 -1 -5 -18z"/>
<path d="M1916 2801 c-16 -6 -17 -9 -5 -13 18 -7 69 1 69 11 0 9 -41 11 -64 2z"/>
<path d="M1765 2770 c3 -5 11 -10 16 -10 6 0 7 5 4 10 -3 6 -11 10 -16 10 -6
0 -7 -4 -4 -10z"/>
<path d="M4016 2085 c-87 -13 -160 -26 -163 -28 -2 -3 23 -19 56 -36 47 -24
89 -35 181 -48 112 -15 128 -15 240 0 92 13 134 24 181 48 33 17 58 33 56 35
-6 7 -337 54 -367 53 -14 -1 -96 -12 -184 -24z"/>
<path d="M5200 1911 c0 -6 4 -13 10 -16 6 -3 7 1 4 9 -7 18 -14 21 -14 7z"/>
<path d="M5372 1821 c-11 -6 -10 -10 3 -15 15 -5 14 -9 -6 -27 -15 -12 -8 -10
19 7 23 15 40 29 37 32 -10 10 -40 11 -53 3z"/>
<path d="M4435 1090 c-3 -6 1 -7 9 -4 18 7 21 14 7 14 -6 0 -13 -4 -16 -10z"/>
<path d="M4835 2750 c3 -5 8 -10 11 -10 2 0 4 5 4 10 0 6 -5 10 -11 10 -5 0
-7 -4 -4 -10z"/>
<path d="M5005 2710 c-3 -6 1 -7 9 -4 18 7 21 14 7 14 -6 0 -13 -4 -16 -10z"/>
<path d="M5030 2700 c-13 -8 -12 -10 3 -10 9 0 17 5 17 10 0 12 -1 12 -20 0z"/>
<path d="M5068 2683 c7 -3 16 -2 19 1 4 3 -2 6 -13 5 -11 0 -14 -3 -6 -6z"/>
<path d="M5170 2654 c81 -25 100 -29 100 -16 0 9 -134 43 -160 41 -8 0 19 -11
60 -25z"/>
<path d="M5160 2630 c8 -5 20 -10 25 -10 6 0 3 5 -5 10 -8 5 -19 10 -25 10 -5
0 -3 -5 5 -10z"/>
</g>
</svg>
